<svg width="36" height="12" viewBox="0 0 36 12" fill="none" xmlns="http://www.w3.org/2000/svg">
<path d="M1.4093 5.25L0.659302 5.25L0.659302 6.75L1.4093 6.75L1.4093 5.25ZM35.6391 6.53033C35.932 6.23744 35.932 5.76257 35.6391 5.46967L30.8661 0.696701C30.5733 0.403808 30.0984 0.403808 29.8055 0.696701C29.5126 0.989594 29.5126 1.46447 29.8055 1.75736L34.0481 6L29.8055 10.2426C29.5126 10.5355 29.5126 11.0104 29.8055 11.3033C30.0984 11.5962 30.5732 11.5962 30.8661 11.3033L35.6391 6.53033ZM1.4093 6.75L35.1088 6.75L35.1088 5.25L1.4093 5.25L1.4093 6.75Z" fill="white"/>
</svg>
